<?xml version="1.0" encoding="UTF-8"?>
<svg width="800" height="600" xmlns="http://www.w3.org/2000/svg">
    <!-- 背景 -->
    <rect width="100%" height="100%" fill="#f8f9fa"/>
    
    <!-- 第1步：发送者签名过程 -->
    <g transform="translate(0,0)">
        <rect x="50" y="20" width="700" height="160" fill="white" stroke="#e9ecef" rx="10"/>
        <text x="60" y="40" fill="#495057" font-weight="bold" font-family="Arial">你计算消息哈希并用私钥加密（签名）</text>
        
        <!-- 发送者 -->
        <circle cx="100" cy="100" r="20" fill="#74c0fc"/>
        <text x="100" y="140" text-anchor="middle" fill="#495057" font-family="Arial">你</text>
        
        <!-- 消息流程 -->
        <rect x="180" y="80" width="80" height="40" fill="#91a7ff" stroke="#5c7cfa" rx="5"/>
        <text x="220" y="70" text-anchor="middle" fill="#495057" font-family="Arial">情书</text>
        
        <!-- 哈希过程 -->
        <rect x="320" y="85" width="60" height="30" fill="#ffd43b" stroke="#f08c00" rx="5"/>
        <text x="350" y="70" text-anchor="middle" fill="#495057" font-family="Arial">哈希</text>
        <text x="350" y="105" text-anchor="middle" font-size="12" fill="#495057">H(消息)</text>
        
        <!-- 私钥加密 -->
        <rect x="440" y="85" width="60" height="30" fill="#69db7c" stroke="#37b24d" rx="5"/>
        <text x="470" y="70" text-anchor="middle" fill="#495057" font-family="Arial">私钥加密</text>
        
        <!-- 最终包 -->
        <rect x="560" y="70" width="80" height="60" fill="#91a7ff" stroke="#5c7cfa" rx="5"/>
        <line x1="560" y1="100" x2="640" y2="100" stroke="#5c7cfa"/>
        <text x="600" y="90" text-anchor="middle" font-size="12" fill="#495057">情书</text>
        <text x="600" y="120" text-anchor="middle" font-size="12" fill="#495057">签名</text>
        
        <!-- 箭头 -->
        <line x1="270" y1="100" x2="310" y2="100" stroke="#adb5bd" stroke-width="2" marker-end="url(#arrowhead)"/>
        <line x1="390" y1="100" x2="430" y2="100" stroke="#adb5bd" stroke-width="2" marker-end="url(#arrowhead)"/>
        <line x1="510" y1="100" x2="550" y2="100" stroke="#adb5bd" stroke-width="2" marker-end="url(#arrowhead)"/>
    </g>

    <!-- 第2步：接收者验证成功 -->
    <g transform="translate(0,180)">
        <rect x="50" y="20" width="700" height="160" fill="white" stroke="#e9ecef" rx="10"/>
        <text x="60" y="40" fill="#495057" font-weight="bold" font-family="Arial">成功传输，女神验证成功</text>
        
        <!-- 接收者 -->
        <circle cx="100" cy="100" r="20" fill="#faa2c1"/>
        <text x="100" y="140" text-anchor="middle" fill="#495057" font-family="Arial">女神</text>
        
        <!-- 收到的包 -->
        <rect x="180" y="70" width="80" height="60" fill="#91a7ff" stroke="#5c7cfa" rx="5"/>
        <line x1="180" y1="100" x2="260" y2="100" stroke="#5c7cfa"/>
        <text x="220" y="90" text-anchor="middle" font-size="12" fill="#495057">情书</text>
        <text x="220" y="120" text-anchor="middle" font-size="12" fill="#495057">签名</text>
        
        <!-- 验证过程 -->
        <g transform="translate(320,70)">
            <!-- 上路径：消息哈希 -->
            <rect x="0" y="0" width="60" height="30" fill="#ffd43b" stroke="#f08c00" rx="5"/>
            <text x="30" y="-10" text-anchor="middle" fill="#495057" font-family="Arial">哈希</text>
            
            <!-- 下路径：签名解密 -->
            <rect x="0" y="40" width="60" height="30" fill="#69db7c" stroke="#37b24d" rx="5"/>
            <text x="30" y="80" text-anchor="middle" fill="#495057" font-family="Arial">公钥解密</text>
            
            <!-- 比较结果 -->
            <rect x="120" y="20" width="60" height="30" fill="#40c057" stroke="#2f9e44" rx="5"/>
            <text x="150" y="40" text-anchor="middle" fill="#495057">匹配</text>
            <text x="150" y="70" text-anchor="middle" fill="#40c057" font-size="24">✓</text>
        </g>
        
        <!-- 箭头 -->
        <line x1="270" y1="90" x2="310" y2="85" stroke="#adb5bd" stroke-width="2" marker-end="url(#arrowhead)"/>
        <line x1="270" y1="110" x2="310" y2="125" stroke="#adb5bd" stroke-width="2" marker-end="url(#arrowhead)"/>
        <line x1="390" y1="85" x2="430" y2="105" stroke="#adb5bd" stroke-width="2" marker-end="url(#arrowhead)"/>
        <line x1="390" y1="125" x2="430" y2="105" stroke="#adb5bd" stroke-width="2" marker-end="url(#arrowhead)"/>
    </g>

    <!-- 第3步：攻击者篡改验证失败 -->
    <g transform="translate(0,360)">
        <rect x="50" y="20" width="700" height="160" fill="white" stroke="#e9ecef" rx="10"/>
        <text x="60" y="40" fill="#495057" font-weight="bold" font-family="Arial">闺蜜篡改消息，女神验证失败</text>
        
        <!-- 闺蜜 -->
        <circle cx="100" cy="100" r="20" fill="#ff6b6b"/>
        <text x="100" y="140" text-anchor="middle" fill="#495057" font-family="Arial">闺蜜</text>
        
        <!-- 篡改的包 -->
        <rect x="180" y="70" width="80" height="60" fill="#ff8787" stroke="#e03131" rx="5"/>
        <line x1="180" y1="100" x2="260" y2="100" stroke="#e03131"/>
        <text x="220" y="90" text-anchor="middle" font-size="12" fill="#495057">篡改的情书</text>
        <text x="220" y="120" text-anchor="middle" font-size="12" fill="#495057">原始签名</text>

        <!-- 女神 -->
        <circle cx="320" cy="100" r="20" fill="#faa2c1"/>
        <text x="320" y="140" text-anchor="middle" fill="#495057" font-family="Arial">女神</text>
        
        <!-- 验证过程 -->
        <g transform="translate(400,70)">
            <!-- 上路径：消息哈希 -->
            <rect x="0" y="0" width="60" height="30" fill="#ffd43b" stroke="#f08c00" rx="5"/>
            <text x="30" y="-10" text-anchor="middle" fill="#495057" font-family="Arial">哈希</text>
            
            <!-- 下路径：签名解密 -->
            <rect x="0" y="40" width="60" height="30" fill="#69db7c" stroke="#37b24d" rx="5"/>
            <text x="30" y="80" text-anchor="middle" fill="#495057" font-family="Arial">公钥解密</text>
            
            <!-- 比较结果 -->
            <rect x="120" y="20" width="60" height="30" fill="#ff6b6b" stroke="#e03131" rx="5"/>
            <text x="150" y="40" text-anchor="middle" fill="#495057">不匹配</text>
            <text x="150" y="70" text-anchor="middle" fill="#ff6b6b" font-size="24">✗</text>
        </g>
        
        <!-- 箭头 -->
        <line x1="270" y1="90" x2="290" y2="90" stroke="#adb5bd" stroke-width="2" marker-end="url(#arrowhead)"/>
        <line x1="350" y1="90" x2="390" y2="85" stroke="#adb5bd" stroke-width="2" marker-end="url(#arrowhead)"/>
        <line x1="350" y1="110" x2="390" y2="125" stroke="#adb5bd" stroke-width="2" marker-end="url(#arrowhead)"/>
        <line x1="470" y1="85" x2="510" y2="105" stroke="#adb5bd" stroke-width="2" marker-end="url(#arrowhead)"/>
        <line x1="470" y1="125" x2="510" y2="105" stroke="#adb5bd" stroke-width="2" marker-end="url(#arrowhead)"/>
    </g>

    <!-- 箭头定义 -->
    <defs>
        <marker id="arrowhead" markerWidth="10" markerHeight="7" 
                refX="9" refY="3.5" orient="auto">
            <polygon points="0 0, 10 3.5, 0 7" fill="#adb5bd"/>
        </marker>
    </defs>
</svg> 