<svg width="600" height="300" xmlns="http://www.w3.org/2000/svg">
  <!-- 样式定义 -->
  <style>
    .box { 
      fill: #ffffff;
      stroke: #2196F3;
      stroke-width: 1.5;
      filter: drop-shadow(2px 2px 3px rgba(0,0,0,0.1));
    }
    .arrow {
      stroke: #90CAF9;
      stroke-width: 1.5;
      marker-end: url(#arrowhead);
    }
    text {
      font-family: 'Segoe UI', sans-serif;
      font-size: 14px;
      fill: #424242;
    }
    .example-text {
      font-family: 'Consolas', monospace;
      font-size: 12px;
      fill: #616161;
    }
  </style>

  <!-- 箭头标记定义 -->
  <defs>
    <marker id="arrowhead" markerWidth="10" markerHeight="7" 
    refX="9" refY="3.5" orient="auto">
      <polygon points="0 0, 10 3.5, 0 7" fill="#90CAF9"/>
    </marker>
  </defs>

  <!-- 输入框 -->
  <g transform="translate(50,50)">
    <rect class="box" width="150" height="60" rx="3"/>
    <text x="75" y="35" text-anchor="middle">输入数据</text>
    <text x="75" y="50" text-anchor="middle" font-size="11">(任意长度)</text>
  </g>

  <!-- Hash箭头和文字 -->
  <g transform="translate(200,80)">
    <path class="arrow" d="M0,0 H220"/>
    <text x="110" y="-10" text-anchor="middle">Hash</text>
  </g>

  <!-- 输出框 -->
  <g transform="translate(420,50)">
    <rect class="box" width="150" height="60" rx="3"/>
    <text x="75" y="35" text-anchor="middle">哈希值</text>
    <text x="75" y="50" text-anchor="middle" font-size="11">(固定长度)</text>
  </g>

  <!-- 示例输入输出 -->
  <g transform="translate(50,180)">
    <rect class="box" width="150" height="100" rx="3"/>
    <text class="example-text" x="20" y="30">"Hello"</text>
    <text class="example-text" x="20" y="60">"Hello World"</text>
    <text class="example-text" x="20" y="90">"Hi"</text>
  </g>

  <!-- 中间的箭头和Hash文字 -->
  <g transform="translate(200,180)">
    <path class="arrow" d="M0,50 H220"/>
    <text x="110" y="40" text-anchor="middle">Hash</text>
  </g>

  <g transform="translate(420,180)">
    <rect class="box" width="150" height="100" rx="3"/>
    <text class="example-text" x="20" y="30">2cf24dba...</text>
    <text class="example-text" x="20" y="60">b94d27b9...</text>
    <text class="example-text" x="20" y="90">c1a5298f...</text>
  </g>
</svg>