<?xml version="1.0" encoding="UTF-8"?>
<svg width="1440.0" height="900.0" xmlns="http://www.w3.org/2000/svg">
<rect x="660.0" y="50" width="120" height="50" fill="none" stroke="black"/>
<text x="720.0" y="80" text-anchor="middle">Hash: 5269ef...</text>
<line x1="720.0" y1="100" x2="360.0" y2="170" stroke="black"/>
<rect x="300.0" y="170" width="120" height="50" fill="none" stroke="black"/>
<text x="360.0" y="200" text-anchor="middle">Hash: 58c89d...</text>
<line x1="360.0" y1="220" x2="180.0" y2="290" stroke="black"/>
<rect x="120.0" y="290" width="120" height="50" fill="none" stroke="black"/>
<text x="180.0" y="320" text-anchor="middle">Hash: 62af5c...</text>
<line x1="180.0" y1="340" x2="90.0" y2="410" stroke="black"/>
<rect x="30.0" y="410" width="120" height="50" fill="none" stroke="black"/>
<text x="90.0" y="430" text-anchor="middle">Data: a</text>
<text x="90.0" y="450" text-anchor="middle">Hash: ca9781...</text>
<line x1="180.0" y1="340" x2="270.0" y2="410" stroke="black"/>
<rect x="210.0" y="410" width="120" height="50" fill="none" stroke="black"/>
<text x="270.0" y="430" text-anchor="middle">Data: b</text>
<text x="270.0" y="450" text-anchor="middle">Hash: 3e23e8...</text>
<line x1="360.0" y1="220" x2="540.0" y2="290" stroke="black"/>
<rect x="480.0" y="290" width="120" height="50" fill="none" stroke="black"/>
<text x="540.0" y="320" text-anchor="middle">Hash: d3a0f1...</text>
<line x1="540.0" y1="340" x2="450.0" y2="410" stroke="black"/>
<rect x="390.0" y="410" width="120" height="50" fill="none" stroke="black"/>
<text x="450.0" y="430" text-anchor="middle">Data: c</text>
<text x="450.0" y="450" text-anchor="middle">Hash: 2e7d2c...</text>
<line x1="540.0" y1="340" x2="630.0" y2="410" stroke="black"/>
<rect x="570.0" y="410" width="120" height="50" fill="none" stroke="black"/>
<text x="630.0" y="430" text-anchor="middle">Data: d</text>
<text x="630.0" y="450" text-anchor="middle">Hash: 18ac3e...</text>
<line x1="720.0" y1="100" x2="1080.0" y2="170" stroke="black"/>
<rect x="1020.0" y="170" width="120" height="50" fill="none" stroke="black"/>
<text x="1080.0" y="200" text-anchor="middle">Hash: 38e219...</text>
<line x1="1080.0" y1="220" x2="900.0" y2="290" stroke="black"/>
<rect x="840.0" y="290" width="120" height="50" fill="none" stroke="black"/>
<text x="900.0" y="320" text-anchor="middle">Hash: 1b3dae...</text>
<line x1="900.0" y1="340" x2="810.0" y2="410" stroke="black"/>
<rect x="750.0" y="410" width="120" height="50" fill="none" stroke="black"/>
<text x="810.0" y="430" text-anchor="middle">Data: e</text>
<text x="810.0" y="450" text-anchor="middle">Hash: 3f79bb...</text>
<line x1="900.0" y1="340" x2="990.0" y2="410" stroke="black"/>
<rect x="930.0" y="410" width="120" height="50" fill="none" stroke="black"/>
<text x="990.0" y="430" text-anchor="middle">Data: f</text>
<text x="990.0" y="450" text-anchor="middle">Hash: 252f10...</text>
<line x1="1080.0" y1="220" x2="1260.0" y2="290" stroke="black"/>
<rect x="1200.0" y="290" width="120" height="50" fill="none" stroke="black"/>
<text x="1260.0" y="320" text-anchor="middle">Hash: 1b3dae...</text>
<line x1="1260.0" y1="340" x2="1170.0" y2="410" stroke="black"/>
<rect x="1110.0" y="410" width="120" height="50" fill="none" stroke="black"/>
<text x="1170.0" y="430" text-anchor="middle">Data: e</text>
<text x="1170.0" y="450" text-anchor="middle">Hash: 3f79bb...</text>
<line x1="1260.0" y1="340" x2="1350.0" y2="410" stroke="black"/>
<rect x="1290.0" y="410" width="120" height="50" fill="none" stroke="black"/>
<text x="1350.0" y="430" text-anchor="middle">Data: f</text>
<text x="1350.0" y="450" text-anchor="middle">Hash: 252f10...</text>
</svg>